<svg width="161" height="161" viewBox="0 0 161 161" fill="none" xmlns="http://www.w3.org/2000/svg">
  <path d="M157.535 0.987793H144.604C143.499 0.987793 142.604 1.88322 142.604 2.98779V15.9561C142.604 17.0607 143.499 17.9561 144.604 17.9561H157.535C158.64 17.9561 159.535 17.0607 159.535 15.9561V2.98779C159.535 1.88322 158.64 0.987793 157.535 0.987793Z" fill="#F5F5F5"/>
  <path d="M137.316 21.2516H124.384C123.279 21.2516 122.384 22.147 122.384 23.2516V36.2199C122.384 37.3245 123.279 38.2199 124.384 38.2199H137.316C138.42 38.2199 139.316 37.3245 139.316 36.2199V23.2516C139.316 22.147 138.42 21.2516 137.316 21.2516Z" fill="#F5F5F5"/>
  <path d="M117.096 41.5154H104.164C103.059 41.5154 102.164 42.4108 102.164 43.5154V56.4837C102.164 57.5883 103.059 58.4837 104.164 58.4837H117.096C118.2 58.4837 119.096 57.5883 119.096 56.4837V43.5154C119.096 42.4108 118.2 41.5154 117.096 41.5154Z" fill="#F5F5F5"/>
  <path d="M96.8756 61.7793H83.944C82.8395 61.7793 81.944 62.6747 81.944 63.7793V76.7476C81.944 77.8522 82.8395 78.7476 83.944 78.7476H96.8756C97.9802 78.7476 98.8756 77.8522 98.8756 76.7476V63.7793C98.8756 62.6747 97.9802 61.7793 96.8756 61.7793Z" fill="#F5F5F5"/>
  <path d="M75.5915 82.0432H62.6599C61.5553 82.0432 60.6599 82.9386 60.6599 84.0432V97.0115C60.6599 98.1161 61.5553 99.0115 62.6599 99.0115H75.5915C76.696 99.0115 77.5915 98.1161 77.5915 97.0115V84.0432C77.5915 82.9386 76.696 82.0432 75.5915 82.0432Z" fill="#F5F5F5"/>
  <path d="M55.3715 102.307H42.4399C41.3354 102.307 40.4399 103.202 40.4399 104.307V117.275C40.4399 118.38 41.3354 119.275 42.4399 119.275H55.3715C56.4761 119.275 57.3715 118.38 57.3715 117.275V104.307C57.3715 103.202 56.4761 102.307 55.3715 102.307Z" fill="#F5F5F5"/>
  <path d="M36.2157 122.571H23.2841C22.1795 122.571 21.2841 123.466 21.2841 124.571V137.539C21.2841 138.644 22.1795 139.539 23.2841 139.539H36.2157C37.3202 139.539 38.2157 138.644 38.2157 137.539V124.571C38.2157 123.466 37.3202 122.571 36.2157 122.571Z" fill="#F5F5F5"/>
  <path d="M14.9316 142.835H2.00006C0.895492 142.835 6.10352e-05 143.73 6.10352e-05 144.835V157.803C6.10352e-05 158.907 0.895491 159.803 2.00006 159.803H14.9316C16.0362 159.803 16.9316 158.907 16.9316 157.803V144.835C16.9316 143.73 16.0362 142.835 14.9316 142.835Z" fill="#F5F5F5"/>
  <path d="M0.0142602 3.10874L0.106555 16.0767C0.114416 17.1813 1.0162 18.0703 2.12074 18.0624L15.052 17.9699C16.1565 17.962 17.0455 17.0602 17.0377 15.9557L16.9454 2.98771C16.9375 1.88317 16.0357 0.994163 14.9312 1.00206L1.99998 1.09449C0.895434 1.10239 0.00639901 2.00419 0.0142602 3.10874Z" fill="#F5F5F5"/>
  <path d="M20.2342 23.3725L20.3265 36.3405C20.3343 37.445 21.2361 38.3341 22.3406 38.3262L35.2719 38.2337C36.3764 38.2258 37.2655 37.324 37.2576 36.2195L37.1653 23.2515C37.1574 22.147 36.2557 21.258 35.1511 21.2659L22.2199 21.3583C21.1153 21.3662 20.2263 22.268 20.2342 23.3725Z" fill="#F5F5F5"/>
  <path d="M40.4542 43.6364L40.5465 56.6044C40.5544 57.709 41.4561 58.598 42.5607 58.5901L55.4919 58.4976C56.5965 58.4897 57.4855 57.5879 57.4776 56.4834L57.3853 43.5154C57.3775 42.4109 56.4757 41.5219 55.3711 41.5298L42.4399 41.6222C41.3354 41.6301 40.4463 42.5319 40.4542 43.6364Z" fill="#F5F5F5"/>
  <path d="M60.6742 63.9001L60.7665 76.8681C60.7743 77.9726 61.6761 78.8616 62.7806 78.8537L75.7119 78.7613C76.8164 78.7534 77.7055 77.8516 77.6976 76.7471L77.6053 63.7791C77.5974 62.6746 76.6957 61.7855 75.5911 61.7934L62.6599 61.8859C61.5553 61.8938 60.6663 62.7956 60.6742 63.9001Z" fill="#F5F5F5"/>
  <path d="M81.9583 84.164L82.0506 97.132C82.0584 98.2366 82.9602 99.1256 84.0648 99.1177L96.996 99.0252C98.1005 99.0173 98.9896 98.1155 98.9817 97.011L98.8894 84.043C98.8816 82.9385 97.9798 82.0495 96.8752 82.0574L83.944 82.1498C82.8395 82.1577 81.9504 83.0595 81.9583 84.164Z" fill="#F5F5F5"/>
  <path d="M102.178 104.428L102.271 117.396C102.278 118.5 103.18 119.389 104.285 119.382L117.216 119.289C118.321 119.281 119.21 118.379 119.202 117.275L119.109 104.307C119.102 103.202 118.2 102.313 117.095 102.321L104.164 102.414C103.059 102.422 102.17 103.323 102.178 104.428Z" fill="#F5F5F5"/>
  <path d="M122.398 124.692L122.49 137.66C122.498 138.764 123.4 139.653 124.505 139.645L137.436 139.553C138.54 139.545 139.429 138.643 139.422 137.539L139.329 124.571C139.321 123.466 138.42 122.577 137.315 122.585L124.384 122.677C123.279 122.685 122.39 123.587 122.398 124.692Z" fill="#F5F5F5"/>
  <path d="M142.618 144.956L142.71 157.924C142.718 159.028 143.62 159.917 144.725 159.909L157.656 159.817C158.76 159.809 159.649 158.907 159.642 157.803L159.549 144.835C159.541 143.73 158.64 142.841 157.535 142.849L144.604 142.941C143.499 142.949 142.61 143.851 142.618 144.956Z" fill="#F5F5F5"/>
  <path d="M149.359 79.8218H144.683C143.578 79.8218 142.683 80.7172 142.683 81.8218V86.7113C142.683 87.8159 143.578 88.7113 144.683 88.7113H149.359C150.464 88.7113 151.359 87.8159 151.359 86.7113V81.8218C151.359 80.7172 150.464 79.8218 149.359 79.8218Z" fill="#F5F5F5"/>
  <path d="M149.677 70H145C143.895 70 143 70.8954 143 72V76.8896C143 77.9941 143.895 78.8896 145 78.8896H149.677C150.781 78.8896 151.677 77.9941 151.677 76.8896V72C151.677 70.8954 150.781 70 149.677 70Z" fill="#F5F5F5"/>
  <path d="M159 69.9445H154.323C153.219 69.9445 152.323 70.8399 152.323 71.9445V76.834C152.323 77.9386 153.219 78.834 154.323 78.834H159C160.105 78.834 161 77.9386 161 76.834V71.9445C161 70.8399 160.105 69.9445 159 69.9445Z" fill="#F5F5F5"/>
  <path d="M159 79.8218H154.323C153.219 79.8218 152.323 80.7172 152.323 81.8218V86.7113C152.323 87.8159 153.219 88.7113 154.323 88.7113H159C160.105 88.7113 161 87.8159 161 86.7113V81.8218C161 80.7172 160.105 79.8218 159 79.8218Z" fill="#F5F5F5"/>
  <path d="M6.67665 80.0061H2C0.89543 80.0061 0 80.9015 0 82.0061V86.8957C0 88.0002 0.89543 88.8957 2 88.8957H6.67665C7.78122 88.8957 8.67665 88.0002 8.67665 86.8957V82.0061C8.67665 80.9015 7.78122 80.0061 6.67665 80.0061Z" fill="#F5F5F5"/>
  <path d="M6.67665 70.1288H2C0.89543 70.1288 0 71.0242 0 72.1288V77.0184C0 78.1229 0.89543 79.0184 2 79.0184H6.67665C7.78122 79.0184 8.67665 78.1229 8.67665 77.0184V72.1288C8.67665 71.0242 7.78122 70.1288 6.67665 70.1288Z" fill="#F5F5F5"/>
  <path d="M16.3173 70.1288H11.6407C10.5361 70.1288 9.64069 71.0242 9.64069 72.1288V77.0184C9.64069 78.1229 10.5361 79.0184 11.6407 79.0184H16.3173C17.4219 79.0184 18.3173 78.1229 18.3173 77.0184V72.1288C18.3173 71.0242 17.4219 70.1288 16.3173 70.1288Z" fill="#F5F5F5"/>
  <path d="M16.3173 80.0061H11.6407C10.5361 80.0061 9.64069 80.9015 9.64069 82.0061V86.8957C9.64069 88.0002 10.5361 88.8957 11.6407 88.8957H16.3173C17.4219 88.8957 18.3173 88.0002 18.3173 86.8957V82.0061C18.3173 80.9015 17.4219 80.0061 16.3173 80.0061Z" fill="#F5F5F5"/>
  <path d="M77.0539 9.87732H72.3773C71.2727 9.87732 70.3773 10.7728 70.3773 11.8773V16.7669C70.3773 17.8715 71.2727 18.7669 72.3773 18.7669H77.0539C78.1585 18.7669 79.0539 17.8715 79.0539 16.7669V11.8773C79.0539 10.7727 78.1585 9.87732 77.0539 9.87732Z" fill="#F5F5F5"/>
  <path d="M77.0539 0H72.3773C71.2727 0 70.3773 0.895432 70.3773 2V6.88957C70.3773 7.99414 71.2727 8.88957 72.3773 8.88957H77.0539C78.1585 8.88957 79.0539 7.99414 79.0539 6.88957V2C79.0539 0.89543 78.1585 0 77.0539 0Z" fill="#F5F5F5"/>
  <path d="M86.6946 0H82.0179C80.9134 0 80.0179 0.895432 80.0179 2V6.88957C80.0179 7.99414 80.9134 8.88957 82.0179 8.88957H86.6946C87.7992 8.88957 88.6946 7.99414 88.6946 6.88957V2C88.6946 0.89543 87.7992 0 86.6946 0Z" fill="#F5F5F5"/>
  <path d="M86.6946 9.87732H82.0179C80.9134 9.87732 80.0179 10.7728 80.0179 11.8773V16.7669C80.0179 17.8715 80.9134 18.7669 82.0179 18.7669H86.6946C87.7992 18.7669 88.6946 17.8715 88.6946 16.7669V11.8773C88.6946 10.7727 87.7992 9.87732 86.6946 9.87732Z" fill="#F5F5F5"/>
  <path d="M77.0539 152.11H72.3773C71.2727 152.11 70.3773 153.006 70.3773 154.11V159C70.3773 160.105 71.2727 161 72.3773 161H77.0539C78.1585 161 79.0539 160.105 79.0539 159V154.11C79.0539 153.006 78.1585 152.11 77.0539 152.11Z" fill="#F5F5F5"/>
  <path d="M77.0539 142.233H72.3773C71.2727 142.233 70.3773 143.129 70.3773 144.233V149.123C70.3773 150.227 71.2727 151.123 72.3773 151.123H77.0539C78.1585 151.123 79.0539 150.227 79.0539 149.123V144.233C79.0539 143.129 78.1585 142.233 77.0539 142.233Z" fill="#F5F5F5"/>
  <path d="M86.6946 142.233H82.0179C80.9134 142.233 80.0179 143.129 80.0179 144.233V149.123C80.0179 150.227 80.9134 151.123 82.0179 151.123H86.6946C87.7992 151.123 88.6946 150.227 88.6946 149.123V144.233C88.6946 143.129 87.7992 142.233 86.6946 142.233Z" fill="#F5F5F5"/>
  <path d="M86.6946 152.11H82.0179C80.9134 152.11 80.0179 153.006 80.0179 154.11V159C80.0179 160.105 80.9134 161 82.0179 161H86.6946C87.7992 161 88.6946 160.105 88.6946 159V154.11C88.6946 153.006 87.7992 152.11 86.6946 152.11Z" fill="#F5F5F5"/>
</svg>
