<svg width="882" height="162" viewBox="0 0 882 162" fill="none" xmlns="http://www.w3.org/2000/svg">
  <path d="M157.535 0.987793H144.604C143.499 0.987793 142.604 1.88322 142.604 2.98779V15.9561C142.604 17.0607 143.499 17.9561 144.604 17.9561H157.535C158.64 17.9561 159.535 17.0607 159.535 15.9561V2.98779C159.535 1.88322 158.64 0.987793 157.535 0.987793Z" fill="#F5F5F5"/>
  <path d="M137.316 21.2516H124.384C123.279 21.2516 122.384 22.147 122.384 23.2516V36.2199C122.384 37.3245 123.279 38.2199 124.384 38.2199H137.316C138.42 38.2199 139.316 37.3245 139.316 36.2199V23.2516C139.316 22.147 138.42 21.2516 137.316 21.2516Z" fill="#F5F5F5"/>
  <path d="M117.096 41.5154H104.164C103.059 41.5154 102.164 42.4108 102.164 43.5154V56.4837C102.164 57.5883 103.059 58.4837 104.164 58.4837H117.096C118.2 58.4837 119.096 57.5883 119.096 56.4837V43.5154C119.096 42.4108 118.2 41.5154 117.096 41.5154Z" fill="#F5F5F5"/>
  <path d="M96.8756 61.7793H83.944C82.8395 61.7793 81.944 62.6747 81.944 63.7793V76.7476C81.944 77.8522 82.8395 78.7476 83.944 78.7476H96.8756C97.9802 78.7476 98.8756 77.8522 98.8756 76.7476V63.7793C98.8756 62.6747 97.9802 61.7793 96.8756 61.7793Z" fill="#F5F5F5"/>
  <path d="M75.5915 82.0432H62.6599C61.5553 82.0432 60.6599 82.9386 60.6599 84.0432V97.0115C60.6599 98.1161 61.5553 99.0115 62.6599 99.0115H75.5915C76.696 99.0115 77.5915 98.1161 77.5915 97.0115V84.0432C77.5915 82.9386 76.696 82.0432 75.5915 82.0432Z" fill="#F5F5F5"/>
  <path d="M55.3715 102.307H42.4399C41.3354 102.307 40.4399 103.202 40.4399 104.307V117.275C40.4399 118.38 41.3354 119.275 42.4399 119.275H55.3715C56.4761 119.275 57.3715 118.38 57.3715 117.275V104.307C57.3715 103.202 56.4761 102.307 55.3715 102.307Z" fill="#F5F5F5"/>
  <path d="M36.2157 122.571H23.2841C22.1795 122.571 21.2841 123.466 21.2841 124.571V137.539C21.2841 138.644 22.1795 139.539 23.2841 139.539H36.2157C37.3202 139.539 38.2157 138.644 38.2157 137.539V124.571C38.2157 123.466 37.3202 122.571 36.2157 122.571Z" fill="#F5F5F5"/>
  <path d="M14.9316 142.835H2.00006C0.895492 142.835 6.10352e-05 143.73 6.10352e-05 144.835V157.803C6.10352e-05 158.907 0.895491 159.803 2.00006 159.803H14.9316C16.0362 159.803 16.9316 158.907 16.9316 157.803V144.835C16.9316 143.73 16.0362 142.835 14.9316 142.835Z" fill="#F5F5F5"/>
  <path d="M0.0142602 3.10874L0.106555 16.0767C0.114416 17.1813 1.0162 18.0703 2.12074 18.0624L15.052 17.9699C16.1565 17.962 17.0455 17.0602 17.0377 15.9557L16.9454 2.98771C16.9375 1.88317 16.0357 0.994163 14.9312 1.00206L1.99998 1.09449C0.895434 1.10239 0.00639901 2.00419 0.0142602 3.10874Z" fill="#F5F5F5"/>
  <path d="M20.2342 23.3725L20.3265 36.3405C20.3343 37.445 21.2361 38.3341 22.3406 38.3262L35.2719 38.2337C36.3764 38.2258 37.2655 37.324 37.2576 36.2195L37.1653 23.2515C37.1574 22.147 36.2557 21.258 35.1511 21.2659L22.2199 21.3583C21.1153 21.3662 20.2263 22.268 20.2342 23.3725Z" fill="#F5F5F5"/>
  <path d="M40.4542 43.6364L40.5465 56.6044C40.5544 57.709 41.4561 58.598 42.5607 58.5901L55.4919 58.4976C56.5965 58.4897 57.4855 57.5879 57.4776 56.4834L57.3853 43.5154C57.3775 42.4109 56.4757 41.5219 55.3711 41.5298L42.4399 41.6222C41.3354 41.6301 40.4463 42.5319 40.4542 43.6364Z" fill="#F5F5F5"/>
  <path d="M60.6742 63.9001L60.7665 76.8681C60.7743 77.9726 61.6761 78.8616 62.7806 78.8537L75.7119 78.7613C76.8164 78.7534 77.7055 77.8516 77.6976 76.7471L77.6053 63.7791C77.5974 62.6746 76.6957 61.7855 75.5911 61.7934L62.6599 61.8859C61.5553 61.8938 60.6663 62.7956 60.6742 63.9001Z" fill="#F5F5F5"/>
  <path d="M81.9583 84.164L82.0506 97.132C82.0584 98.2366 82.9602 99.1256 84.0648 99.1177L96.996 99.0252C98.1005 99.0173 98.9896 98.1155 98.9817 97.011L98.8894 84.043C98.8816 82.9385 97.9798 82.0495 96.8752 82.0574L83.944 82.1498C82.8395 82.1577 81.9504 83.0595 81.9583 84.164Z" fill="#F5F5F5"/>
  <path d="M102.178 104.428L102.271 117.396C102.278 118.5 103.18 119.389 104.285 119.382L117.216 119.289C118.321 119.281 119.21 118.379 119.202 117.275L119.109 104.307C119.102 103.202 118.2 102.313 117.095 102.321L104.164 102.414C103.059 102.422 102.17 103.323 102.178 104.428Z" fill="#F5F5F5"/>
  <path d="M122.398 124.692L122.49 137.66C122.498 138.764 123.4 139.653 124.505 139.645L137.436 139.553C138.54 139.545 139.429 138.643 139.422 137.539L139.329 124.571C139.321 123.466 138.42 122.577 137.315 122.585L124.384 122.677C123.279 122.685 122.39 123.587 122.398 124.692Z" fill="#F5F5F5"/>
  <path d="M142.618 144.956L142.71 157.924C142.718 159.028 143.62 159.917 144.725 159.909L157.656 159.817C158.76 159.809 159.649 158.907 159.642 157.803L159.549 144.835C159.541 143.73 158.64 142.841 157.535 142.849L144.604 142.941C143.499 142.949 142.61 143.851 142.618 144.956Z" fill="#F5F5F5"/>
  <path d="M149.359 79.8218H144.683C143.578 79.8218 142.683 80.7172 142.683 81.8218V86.7113C142.683 87.8159 143.578 88.7113 144.683 88.7113H149.359C150.464 88.7113 151.359 87.8159 151.359 86.7113V81.8218C151.359 80.7172 150.464 79.8218 149.359 79.8218Z" fill="#F5F5F5"/>
  <path d="M149.677 70H145C143.895 70 143 70.8954 143 72V76.8896C143 77.9941 143.895 78.8896 145 78.8896H149.677C150.781 78.8896 151.677 77.9941 151.677 76.8896V72C151.677 70.8954 150.781 70 149.677 70Z" fill="#F5F5F5"/>
  <path d="M159 69.9445H154.323C153.219 69.9445 152.323 70.8399 152.323 71.9445V76.834C152.323 77.9386 153.219 78.834 154.323 78.834H159C160.105 78.834 161 77.9386 161 76.834V71.9445C161 70.8399 160.105 69.9445 159 69.9445Z" fill="#F5F5F5"/>
  <path d="M159 79.8218H154.323C153.219 79.8218 152.323 80.7172 152.323 81.8218V86.7113C152.323 87.8159 153.219 88.7113 154.323 88.7113H159C160.105 88.7113 161 87.8159 161 86.7113V81.8218C161 80.7172 160.105 79.8218 159 79.8218Z" fill="#F5F5F5"/>
  <path d="M6.67665 80.0061H2C0.89543 80.0061 0 80.9015 0 82.0061V86.8957C0 88.0002 0.89543 88.8957 2 88.8957H6.67665C7.78122 88.8957 8.67665 88.0002 8.67665 86.8957V82.0061C8.67665 80.9015 7.78122 80.0061 6.67665 80.0061Z" fill="#F5F5F5"/>
  <path d="M6.67665 70.1288H2C0.89543 70.1288 0 71.0242 0 72.1288V77.0184C0 78.1229 0.89543 79.0184 2 79.0184H6.67665C7.78122 79.0184 8.67665 78.1229 8.67665 77.0184V72.1288C8.67665 71.0242 7.78122 70.1288 6.67665 70.1288Z" fill="#F5F5F5"/>
  <path d="M16.3173 70.1288H11.6407C10.5361 70.1288 9.64069 71.0242 9.64069 72.1288V77.0184C9.64069 78.1229 10.5361 79.0184 11.6407 79.0184H16.3173C17.4219 79.0184 18.3173 78.1229 18.3173 77.0184V72.1288C18.3173 71.0242 17.4219 70.1288 16.3173 70.1288Z" fill="#F5F5F5"/>
  <path d="M16.3173 80.0061H11.6407C10.5361 80.0061 9.64069 80.9015 9.64069 82.0061V86.8957C9.64069 88.0002 10.5361 88.8957 11.6407 88.8957H16.3173C17.4219 88.8957 18.3173 88.0002 18.3173 86.8957V82.0061C18.3173 80.9015 17.4219 80.0061 16.3173 80.0061Z" fill="#F5F5F5"/>
  <path d="M77.0539 9.87732H72.3773C71.2727 9.87732 70.3773 10.7728 70.3773 11.8773V16.7669C70.3773 17.8715 71.2727 18.7669 72.3773 18.7669H77.0539C78.1585 18.7669 79.0539 17.8715 79.0539 16.7669V11.8773C79.0539 10.7727 78.1585 9.87732 77.0539 9.87732Z" fill="#F5F5F5"/>
  <path d="M77.0539 0H72.3773C71.2727 0 70.3773 0.895432 70.3773 2V6.88957C70.3773 7.99414 71.2727 8.88957 72.3773 8.88957H77.0539C78.1585 8.88957 79.0539 7.99414 79.0539 6.88957V2C79.0539 0.89543 78.1585 0 77.0539 0Z" fill="#F5F5F5"/>
  <path d="M86.6946 0H82.0179C80.9134 0 80.0179 0.895432 80.0179 2V6.88957C80.0179 7.99414 80.9134 8.88957 82.0179 8.88957H86.6946C87.7992 8.88957 88.6946 7.99414 88.6946 6.88957V2C88.6946 0.89543 87.7992 0 86.6946 0Z" fill="#F5F5F5"/>
  <path d="M86.6946 9.87732H82.0179C80.9134 9.87732 80.0179 10.7728 80.0179 11.8773V16.7669C80.0179 17.8715 80.9134 18.7669 82.0179 18.7669H86.6946C87.7992 18.7669 88.6946 17.8715 88.6946 16.7669V11.8773C88.6946 10.7727 87.7992 9.87732 86.6946 9.87732Z" fill="#F5F5F5"/>
  <path d="M77.0539 152.11H72.3773C71.2727 152.11 70.3773 153.006 70.3773 154.11V159C70.3773 160.105 71.2727 161 72.3773 161H77.0539C78.1585 161 79.0539 160.105 79.0539 159V154.11C79.0539 153.006 78.1585 152.11 77.0539 152.11Z" fill="#F5F5F5"/>
  <path d="M77.0539 142.233H72.3773C71.2727 142.233 70.3773 143.129 70.3773 144.233V149.123C70.3773 150.227 71.2727 151.123 72.3773 151.123H77.0539C78.1585 151.123 79.0539 150.227 79.0539 149.123V144.233C79.0539 143.129 78.1585 142.233 77.0539 142.233Z" fill="#F5F5F5"/>
  <path d="M86.6946 142.233H82.0179C80.9134 142.233 80.0179 143.129 80.0179 144.233V149.123C80.0179 150.227 80.9134 151.123 82.0179 151.123H86.6946C87.7992 151.123 88.6946 150.227 88.6946 149.123V144.233C88.6946 143.129 87.7992 142.233 86.6946 142.233Z" fill="#F5F5F5"/>
  <path d="M86.6946 152.11H82.0179C80.9134 152.11 80.0179 153.006 80.0179 154.11V159C80.0179 160.105 80.9134 161 82.0179 161H86.6946C87.7992 161 88.6946 160.105 88.6946 159V154.11C88.6946 153.006 87.7992 152.11 86.6946 152.11Z" fill="#F5F5F5"/>
  <path d="M240.953 0H226.906C225.802 0 224.906 0.895429 224.906 2V16.5513C224.906 17.6559 225.802 18.5513 226.906 18.5513H240.953C242.057 18.5513 242.953 17.6559 242.953 16.5513V2C242.953 0.895431 242.057 0 240.953 0Z" fill="#F5F5F5"/>
  <path d="M333.51 0H319.464C318.359 0 317.464 0.895429 317.464 2V16.5513C317.464 17.6559 318.359 18.5513 319.464 18.5513H333.51C334.615 18.5513 335.51 17.6559 335.51 16.5513V2C335.51 0.895431 334.615 0 333.51 0Z" fill="#F5F5F5"/>
  <path d="M240.953 23.7867H226.906C225.802 23.7867 224.906 24.6822 224.906 25.7867V40.338C224.906 41.4426 225.802 42.338 226.906 42.338H240.953C242.057 42.338 242.953 41.4426 242.953 40.338V25.7867C242.953 24.6822 242.057 23.7867 240.953 23.7867Z" fill="#F5F5F5"/>
  <path d="M333.51 23.7867H319.464C318.359 23.7867 317.464 24.6822 317.464 25.7867V40.338C317.464 41.4426 318.359 42.338 319.464 42.338H333.51C334.615 42.338 335.51 41.4426 335.51 40.338V25.7867C335.51 24.6822 334.615 23.7867 333.51 23.7867Z" fill="#F5F5F5"/>
  <path d="M240.953 47.5735H226.906C225.802 47.5735 224.906 48.4689 224.906 49.5735V64.1248C224.906 65.2294 225.802 66.1248 226.906 66.1248H240.953C242.057 66.1248 242.953 65.2294 242.953 64.1248V49.5735C242.953 48.4689 242.057 47.5735 240.953 47.5735Z" fill="#F5F5F5"/>
  <path d="M333.51 47.5735H319.464C318.359 47.5735 317.464 48.4689 317.464 49.5735V64.1248C317.464 65.2294 318.359 66.1248 319.464 66.1248H333.51C334.615 66.1248 335.51 65.2294 335.51 64.1248V49.5735C335.51 48.4689 334.615 47.5735 333.51 47.5735Z" fill="#F5F5F5"/>
  <path d="M240.953 71.3602H226.906C225.802 71.3602 224.906 72.2557 224.906 73.3602V87.9116C224.906 89.0161 225.802 89.9116 226.906 89.9116H240.953C242.057 89.9116 242.953 89.0161 242.953 87.9116V73.3602C242.953 72.2557 242.057 71.3602 240.953 71.3602Z" fill="#F5F5F5"/>
  <path d="M264.092 71.3602H250.046C248.941 71.3602 248.046 72.2557 248.046 73.3602V87.9116C248.046 89.0161 248.941 89.9116 250.046 89.9116H264.092C265.197 89.9116 266.092 89.0161 266.092 87.9116V73.3602C266.092 72.2557 265.197 71.3602 264.092 71.3602Z" fill="#F5F5F5"/>
  <path d="M287.232 71.3602H273.185C272.08 71.3602 271.185 72.2557 271.185 73.3602V87.9116C271.185 89.0161 272.08 89.9116 273.185 89.9116H287.232C288.336 89.9116 289.232 89.0161 289.232 87.9116V73.3602C289.232 72.2557 288.336 71.3602 287.232 71.3602Z" fill="#F5F5F5"/>
  <path d="M310.371 71.3602H296.324C295.22 71.3602 294.324 72.2557 294.324 73.3602V87.9116C294.324 89.0161 295.22 89.9116 296.324 89.9116H310.371C311.475 89.9116 312.371 89.0161 312.371 87.9116V73.3602C312.371 72.2557 311.475 71.3602 310.371 71.3602Z" fill="#F5F5F5"/>
  <path d="M333.51 71.3602H319.464C318.359 71.3602 317.464 72.2557 317.464 73.3602V87.9116C317.464 89.0161 318.359 89.9116 319.464 89.9116H333.51C334.615 89.9116 335.51 89.0161 335.51 87.9116V73.3602C335.51 72.2557 334.615 71.3602 333.51 71.3602Z" fill="#F5F5F5"/>
  <path d="M240.953 95.1469H226.906C225.802 95.1469 224.906 96.0423 224.906 97.1468V111.698C224.906 112.803 225.802 113.698 226.906 113.698H240.953C242.057 113.698 242.953 112.803 242.953 111.698V97.1469C242.953 96.0423 242.057 95.1469 240.953 95.1469Z" fill="#F5F5F5"/>
  <path d="M333.51 95.1469H319.464C318.359 95.1469 317.464 96.0423 317.464 97.1468V111.698C317.464 112.803 318.359 113.698 319.464 113.698H333.51C334.615 113.698 335.51 112.803 335.51 111.698V97.1469C335.51 96.0423 334.615 95.1469 333.51 95.1469Z" fill="#F5F5F5"/>
  <path d="M240.953 118.934H226.906C225.802 118.934 224.906 119.829 224.906 120.934V135.485C224.906 136.589 225.802 137.485 226.906 137.485H240.953C242.057 137.485 242.953 136.589 242.953 135.485V120.934C242.953 119.829 242.057 118.934 240.953 118.934Z" fill="#F5F5F5"/>
  <path d="M333.51 118.934H319.464C318.359 118.934 317.464 119.829 317.464 120.934V135.485C317.464 136.589 318.359 137.485 319.464 137.485H333.51C334.615 137.485 335.51 136.589 335.51 135.485V120.934C335.51 119.829 334.615 118.934 333.51 118.934Z" fill="#F5F5F5"/>
  <path d="M240.953 142.72H226.906C225.802 142.72 224.906 143.616 224.906 144.72V159.272C224.906 160.376 225.802 161.272 226.906 161.272H240.953C242.057 161.272 242.953 160.376 242.953 159.272V144.72C242.953 143.616 242.057 142.72 240.953 142.72Z" fill="#F5F5F5"/>
  <path d="M333.51 142.72H319.464C318.359 142.72 317.464 143.616 317.464 144.72V159.272C317.464 160.376 318.359 161.272 319.464 161.272H333.51C334.615 161.272 335.51 160.376 335.51 159.272V144.72C335.51 143.616 334.615 142.72 333.51 142.72Z" fill="#F5F5F5"/>
  <path d="M400.615 0H386.568C385.464 0 384.568 0.895429 384.568 2V16.5513C384.568 17.6559 385.464 18.5513 386.568 18.5513H400.615C401.719 18.5513 402.615 17.6559 402.615 16.5513V2C402.615 0.895431 401.719 0 400.615 0Z" fill="#F5F5F5"/>
  <path d="M423.754 0H409.708C408.603 0 407.708 0.895429 407.708 2V16.5513C407.708 17.6559 408.603 18.5513 409.708 18.5513H423.754C424.859 18.5513 425.754 17.6559 425.754 16.5513V2C425.754 0.895431 424.859 0 423.754 0Z" fill="#F5F5F5"/>
  <path d="M446.894 0H432.847C431.743 0 430.847 0.895429 430.847 2V16.5513C430.847 17.6559 431.743 18.5513 432.847 18.5513H446.894C447.998 18.5513 448.894 17.6559 448.894 16.5513V2C448.894 0.895431 447.998 0 446.894 0Z" fill="#F5F5F5"/>
  <path d="M377.475 23.7867H363.429C362.324 23.7867 361.429 24.6822 361.429 25.7867V40.338C361.429 41.4426 362.324 42.338 363.429 42.338H377.475C378.58 42.338 379.475 41.4426 379.475 40.338V25.7867C379.475 24.6822 378.58 23.7867 377.475 23.7867Z" fill="#F5F5F5"/>
  <path d="M470.033 23.7867H455.986C454.882 23.7867 453.986 24.6822 453.986 25.7867V40.338C453.986 41.4426 454.882 42.338 455.986 42.338H470.033C471.138 42.338 472.033 41.4426 472.033 40.338V25.7867C472.033 24.6822 471.138 23.7867 470.033 23.7867Z" fill="#F5F5F5"/>
  <path d="M377.475 47.5735H363.429C362.324 47.5735 361.429 48.4689 361.429 49.5735V64.1248C361.429 65.2294 362.324 66.1248 363.429 66.1248H377.475C378.58 66.1248 379.475 65.2294 379.475 64.1248V49.5735C379.475 48.4689 378.58 47.5735 377.475 47.5735Z" fill="#F5F5F5"/>
  <path d="M470.033 47.5735H455.986C454.882 47.5735 453.986 48.4689 453.986 49.5735V64.1248C453.986 65.2294 454.882 66.1248 455.986 66.1248H470.033C471.138 66.1248 472.033 65.2294 472.033 64.1248V49.5735C472.033 48.4689 471.138 47.5735 470.033 47.5735Z" fill="#F5F5F5"/>
  <path d="M377.475 71.3602H363.429C362.324 71.3602 361.429 72.2557 361.429 73.3602V87.9116C361.429 89.0161 362.324 89.9116 363.429 89.9116H377.475C378.58 89.9116 379.475 89.0161 379.475 87.9116V73.3602C379.475 72.2557 378.58 71.3602 377.475 71.3602Z" fill="#F5F5F5"/>
  <path d="M470.033 71.3602H455.986C454.882 71.3602 453.986 72.2557 453.986 73.3602V87.9116C453.986 89.0161 454.882 89.9116 455.986 89.9116H470.033C471.138 89.9116 472.033 89.0161 472.033 87.9116V73.3602C472.033 72.2557 471.138 71.3602 470.033 71.3602Z" fill="#F5F5F5"/>
  <path d="M377.475 95.1469H363.429C362.324 95.1469 361.429 96.0423 361.429 97.1468V111.698C361.429 112.803 362.324 113.698 363.429 113.698H377.475C378.58 113.698 379.475 112.803 379.475 111.698V97.1469C379.475 96.0423 378.58 95.1469 377.475 95.1469Z" fill="#F5F5F5"/>
  <path d="M470.033 95.1469H455.986C454.882 95.1469 453.986 96.0423 453.986 97.1468V111.698C453.986 112.803 454.882 113.698 455.986 113.698H470.033C471.138 113.698 472.033 112.803 472.033 111.698V97.1469C472.033 96.0423 471.138 95.1469 470.033 95.1469Z" fill="#F5F5F5"/>
  <path d="M377.475 118.934H363.429C362.324 118.934 361.429 119.829 361.429 120.934V135.485C361.429 136.589 362.324 137.485 363.429 137.485H377.475C378.58 137.485 379.475 136.589 379.475 135.485V120.934C379.475 119.829 378.58 118.934 377.475 118.934Z" fill="#F5F5F5"/>
  <path d="M470.033 118.934H455.986C454.882 118.934 453.986 119.829 453.986 120.934V135.485C453.986 136.589 454.882 137.485 455.986 137.485H470.033C471.138 137.485 472.033 136.589 472.033 135.485V120.934C472.033 119.829 471.138 118.934 470.033 118.934Z" fill="#F5F5F5"/>
  <path d="M400.615 142.72H386.568C385.464 142.72 384.568 143.616 384.568 144.72V159.272C384.568 160.376 385.464 161.272 386.568 161.272H400.615C401.719 161.272 402.615 160.376 402.615 159.272V144.72C402.615 143.616 401.719 142.72 400.615 142.72Z" fill="#F5F5F5"/>
  <path d="M423.754 142.72H409.708C408.603 142.72 407.708 143.616 407.708 144.72V159.272C407.708 160.376 408.603 161.272 409.708 161.272H423.754C424.859 161.272 425.754 160.376 425.754 159.272V144.72C425.754 143.616 424.859 142.72 423.754 142.72Z" fill="#F5F5F5"/>
  <path d="M446.894 142.72H432.847C431.743 142.72 430.847 143.616 430.847 144.72V159.272C430.847 160.376 431.743 161.272 432.847 161.272H446.894C447.998 161.272 448.894 160.376 448.894 159.272V144.72C448.894 143.616 447.998 142.72 446.894 142.72Z" fill="#F5F5F5"/>
  <path d="M537.137 0H523.091C521.986 0 521.091 0.895429 521.091 2V16.5513C521.091 17.6559 521.986 18.5513 523.091 18.5513H537.137C538.242 18.5513 539.137 17.6559 539.137 16.5513V2C539.137 0.895431 538.242 0 537.137 0Z" fill="#F5F5F5"/>
  <path d="M560.277 0H546.23C545.126 0 544.23 0.895429 544.23 2V16.5513C544.23 17.6559 545.126 18.5513 546.23 18.5513H560.277C561.381 18.5513 562.277 17.6559 562.277 16.5513V2C562.277 0.895431 561.381 0 560.277 0Z" fill="#F5F5F5"/>
  <path d="M583.416 0H569.37C568.265 0 567.37 0.895429 567.37 2V16.5513C567.37 17.6559 568.265 18.5513 569.37 18.5513H583.416C584.521 18.5513 585.416 17.6559 585.416 16.5513V2C585.416 0.895431 584.521 0 583.416 0Z" fill="#F5F5F5"/>
  <path d="M606.556 0H592.509C591.405 0 590.509 0.895429 590.509 2V16.5513C590.509 17.6559 591.405 18.5513 592.509 18.5513H606.556C607.66 18.5513 608.556 17.6559 608.556 16.5513V2C608.556 0.895431 607.66 0 606.556 0Z" fill="#F5F5F5"/>
  <path d="M513.998 23.7867H499.951C498.847 23.7867 497.951 24.6822 497.951 25.7867V40.338C497.951 41.4426 498.847 42.338 499.951 42.338H513.998C515.102 42.338 515.998 41.4426 515.998 40.338V25.7867C515.998 24.6822 515.102 23.7867 513.998 23.7867Z" fill="#F5F5F5"/>
  <path d="M513.998 47.5735H499.951C498.847 47.5735 497.951 48.4689 497.951 49.5735V64.1248C497.951 65.2294 498.847 66.1248 499.951 66.1248H513.998C515.102 66.1248 515.998 65.2294 515.998 64.1248V49.5735C515.998 48.4689 515.102 47.5735 513.998 47.5735Z" fill="#F5F5F5"/>
  <path d="M537.137 71.3602H523.091C521.986 71.3602 521.091 72.2557 521.091 73.3602V87.9116C521.091 89.0161 521.986 89.9116 523.091 89.9116H537.137C538.242 89.9116 539.137 89.0161 539.137 87.9116V73.3602C539.137 72.2557 538.242 71.3602 537.137 71.3602Z" fill="#F5F5F5"/>
  <path d="M560.277 71.3602H546.23C545.126 71.3602 544.23 72.2557 544.23 73.3602V87.9116C544.23 89.0161 545.126 89.9116 546.23 89.9116H560.277C561.381 89.9116 562.277 89.0161 562.277 87.9116V73.3602C562.277 72.2557 561.381 71.3602 560.277 71.3602Z" fill="#F5F5F5"/>
  <path d="M583.416 71.3602H569.37C568.265 71.3602 567.37 72.2557 567.37 73.3602V87.9116C567.37 89.0161 568.265 89.9116 569.37 89.9116H583.416C584.521 89.9116 585.416 89.0161 585.416 87.9116V73.3602C585.416 72.2557 584.521 71.3602 583.416 71.3602Z" fill="#F5F5F5"/>
  <path d="M606.556 95.1469H592.509C591.405 95.1469 590.509 96.0423 590.509 97.1468V111.698C590.509 112.803 591.405 113.698 592.509 113.698H606.556C607.66 113.698 608.556 112.803 608.556 111.698V97.1469C608.556 96.0423 607.66 95.1469 606.556 95.1469Z" fill="#F5F5F5"/>
  <path d="M606.556 118.934H592.509C591.405 118.934 590.509 119.829 590.509 120.934V135.485C590.509 136.589 591.405 137.485 592.509 137.485H606.556C607.66 137.485 608.556 136.589 608.556 135.485V120.934C608.556 119.829 607.66 118.934 606.556 118.934Z" fill="#F5F5F5"/>
  <path d="M513.998 142.72H499.951C498.847 142.72 497.951 143.616 497.951 144.72V159.272C497.951 160.376 498.847 161.272 499.951 161.272H513.998C515.102 161.272 515.998 160.376 515.998 159.272V144.72C515.998 143.616 515.102 142.72 513.998 142.72Z" fill="#F5F5F5"/>
  <path d="M537.137 142.72H523.091C521.986 142.72 521.091 143.616 521.091 144.72V159.272C521.091 160.376 521.986 161.272 523.091 161.272H537.137C538.242 161.272 539.137 160.376 539.137 159.272V144.72C539.137 143.616 538.242 142.72 537.137 142.72Z" fill="#F5F5F5"/>
  <path d="M560.277 142.72H546.23C545.126 142.72 544.23 143.616 544.23 144.72V159.272C544.23 160.376 545.126 161.272 546.23 161.272H560.277C561.381 161.272 562.277 160.376 562.277 159.272V144.72C562.277 143.616 561.381 142.72 560.277 142.72Z" fill="#F5F5F5"/>
  <path d="M583.416 142.72H569.37C568.265 142.72 567.37 143.616 567.37 144.72V159.272C567.37 160.376 568.265 161.272 569.37 161.272H583.416C584.521 161.272 585.416 160.376 585.416 159.272V144.72C585.416 143.616 584.521 142.72 583.416 142.72Z" fill="#F5F5F5"/>
  <path d="M650.521 0H636.474C635.369 0 634.474 0.895429 634.474 2V16.5513C634.474 17.6559 635.369 18.5513 636.474 18.5513H650.521C651.625 18.5513 652.521 17.6559 652.521 16.5513V2C652.521 0.895431 651.625 0 650.521 0Z" fill="#F5F5F5"/>
  <path d="M743.078 0H729.032C727.927 0 727.032 0.895429 727.032 2V16.5513C727.032 17.6559 727.927 18.5513 729.032 18.5513H743.078C744.183 18.5513 745.078 17.6559 745.078 16.5513V2C745.078 0.895431 744.183 0 743.078 0Z" fill="#F5F5F5"/>
  <path d="M650.521 23.7867H636.474C635.369 23.7867 634.474 24.6822 634.474 25.7867V40.338C634.474 41.4426 635.369 42.338 636.474 42.338H650.521C651.625 42.338 652.521 41.4426 652.521 40.338V25.7867C652.521 24.6822 651.625 23.7867 650.521 23.7867Z" fill="#F5F5F5"/>
  <path d="M743.078 23.7867H729.032C727.927 23.7867 727.032 24.6822 727.032 25.7867V40.338C727.032 41.4426 727.927 42.338 729.032 42.338H743.078C744.183 42.338 745.078 41.4426 745.078 40.338V25.7867C745.078 24.6822 744.183 23.7867 743.078 23.7867Z" fill="#F5F5F5"/>
  <path d="M650.521 47.5735H636.474C635.369 47.5735 634.474 48.4689 634.474 49.5735V64.1248C634.474 65.2294 635.369 66.1248 636.474 66.1248H650.521C651.625 66.1248 652.521 65.2294 652.521 64.1248V49.5735C652.521 48.4689 651.625 47.5735 650.521 47.5735Z" fill="#F5F5F5"/>
  <path d="M743.078 47.5735H729.032C727.927 47.5735 727.032 48.4689 727.032 49.5735V64.1248C727.032 65.2294 727.927 66.1248 729.032 66.1248H743.078C744.183 66.1248 745.078 65.2294 745.078 64.1248V49.5735C745.078 48.4689 744.183 47.5735 743.078 47.5735Z" fill="#F5F5F5"/>
  <path d="M650.521 71.3602H636.474C635.369 71.3602 634.474 72.2557 634.474 73.3602V87.9116C634.474 89.0161 635.369 89.9116 636.474 89.9116H650.521C651.625 89.9116 652.521 89.0161 652.521 87.9116V73.3602C652.521 72.2557 651.625 71.3602 650.521 71.3602Z" fill="#F5F5F5"/>
  <path d="M673.66 71.3602H659.614C658.509 71.3602 657.614 72.2557 657.614 73.3602V87.9116C657.614 89.0161 658.509 89.9116 659.614 89.9116H673.66C674.765 89.9116 675.66 89.0161 675.66 87.9116V73.3602C675.66 72.2557 674.765 71.3602 673.66 71.3602Z" fill="#F5F5F5"/>
  <path d="M696.799 71.3602H682.753C681.648 71.3602 680.753 72.2557 680.753 73.3602V87.9116C680.753 89.0161 681.648 89.9116 682.753 89.9116H696.799C697.904 89.9116 698.799 89.0161 698.799 87.9116V73.3602C698.799 72.2557 697.904 71.3602 696.799 71.3602Z" fill="#F5F5F5"/>
  <path d="M719.939 71.3602H705.892C704.788 71.3602 703.892 72.2557 703.892 73.3602V87.9116C703.892 89.0161 704.788 89.9116 705.892 89.9116H719.939C721.043 89.9116 721.939 89.0161 721.939 87.9116V73.3602C721.939 72.2557 721.043 71.3602 719.939 71.3602Z" fill="#F5F5F5"/>
  <path d="M743.078 71.3602H729.032C727.927 71.3602 727.032 72.2557 727.032 73.3602V87.9116C727.032 89.0161 727.927 89.9116 729.032 89.9116H743.078C744.183 89.9116 745.078 89.0161 745.078 87.9116V73.3602C745.078 72.2557 744.183 71.3602 743.078 71.3602Z" fill="#F5F5F5"/>
  <path d="M650.521 95.1469H636.474C635.369 95.1469 634.474 96.0423 634.474 97.1468V111.698C634.474 112.803 635.369 113.698 636.474 113.698H650.521C651.625 113.698 652.521 112.803 652.521 111.698V97.1469C652.521 96.0423 651.625 95.1469 650.521 95.1469Z" fill="#F5F5F5"/>
  <path d="M743.078 95.1469H729.032C727.927 95.1469 727.032 96.0423 727.032 97.1468V111.698C727.032 112.803 727.927 113.698 729.032 113.698H743.078C744.183 113.698 745.078 112.803 745.078 111.698V97.1469C745.078 96.0423 744.183 95.1469 743.078 95.1469Z" fill="#F5F5F5"/>
  <path d="M650.521 118.934H636.474C635.369 118.934 634.474 119.829 634.474 120.934V135.485C634.474 136.589 635.369 137.485 636.474 137.485H650.521C651.625 137.485 652.521 136.589 652.521 135.485V120.934C652.521 119.829 651.625 118.934 650.521 118.934Z" fill="#F5F5F5"/>
  <path d="M743.078 118.934H729.032C727.927 118.934 727.032 119.829 727.032 120.934V135.485C727.032 136.589 727.927 137.485 729.032 137.485H743.078C744.183 137.485 745.078 136.589 745.078 135.485V120.934C745.078 119.829 744.183 118.934 743.078 118.934Z" fill="#F5F5F5"/>
  <path d="M650.521 142.72H636.474C635.369 142.72 634.474 143.616 634.474 144.72V159.272C634.474 160.376 635.369 161.272 636.474 161.272H650.521C651.625 161.272 652.521 160.376 652.521 159.272V144.72C652.521 143.616 651.625 142.72 650.521 142.72Z" fill="#F5F5F5"/>
  <path d="M743.078 142.72H729.032C727.927 142.72 727.032 143.616 727.032 144.72V159.272C727.032 160.376 727.927 161.272 729.032 161.272H743.078C744.183 161.272 745.078 160.376 745.078 159.272V144.72C745.078 143.616 744.183 142.72 743.078 142.72Z" fill="#F5F5F5"/>
  <path d="M787.043 0H772.997C771.892 0 770.997 0.895429 770.997 2V16.5513C770.997 17.6559 771.892 18.5513 772.997 18.5513H787.043C788.148 18.5513 789.043 17.6559 789.043 16.5513V2C789.043 0.895431 788.148 0 787.043 0Z" fill="#F5F5F5"/>
  <path d="M810.183 0H796.136C795.032 0 794.136 0.895429 794.136 2V16.5513C794.136 17.6559 795.032 18.5513 796.136 18.5513H810.183C811.287 18.5513 812.183 17.6559 812.183 16.5513V2C812.183 0.895431 811.287 0 810.183 0Z" fill="#F5F5F5"/>
  <path d="M833.322 0H819.276C818.171 0 817.276 0.895429 817.276 2V16.5513C817.276 17.6559 818.171 18.5513 819.276 18.5513H833.322C834.427 18.5513 835.322 17.6559 835.322 16.5513V2C835.322 0.895431 834.427 0 833.322 0Z" fill="#F5F5F5"/>
  <path d="M856.461 0H842.415C841.31 0 840.415 0.895429 840.415 2V16.5513C840.415 17.6559 841.31 18.5513 842.415 18.5513H856.461C857.566 18.5513 858.461 17.6559 858.461 16.5513V2C858.461 0.895431 857.566 0 856.461 0Z" fill="#F5F5F5"/>
  <path d="M879.601 0H865.554C864.45 0 863.554 0.895429 863.554 2V16.5513C863.554 17.6559 864.45 18.5513 865.554 18.5513H879.601C880.705 18.5513 881.601 17.6559 881.601 16.5513V2C881.601 0.895431 880.705 0 879.601 0Z" fill="#F5F5F5"/>
  <path d="M833.322 23.7867H819.276C818.171 23.7867 817.276 24.6822 817.276 25.7867V40.338C817.276 41.4426 818.171 42.338 819.276 42.338H833.322C834.427 42.338 835.322 41.4426 835.322 40.338V25.7867C835.322 24.6822 834.427 23.7867 833.322 23.7867Z" fill="#F5F5F5"/>
  <path d="M833.322 47.5735H819.276C818.171 47.5735 817.276 48.4689 817.276 49.5735V64.1248C817.276 65.2294 818.171 66.1248 819.276 66.1248H833.322C834.427 66.1248 835.322 65.2294 835.322 64.1248V49.5735C835.322 48.4689 834.427 47.5735 833.322 47.5735Z" fill="#F5F5F5"/>
  <path d="M833.322 71.3602H819.276C818.171 71.3602 817.276 72.2557 817.276 73.3602V87.9116C817.276 89.0161 818.171 89.9116 819.276 89.9116H833.322C834.427 89.9116 835.322 89.0161 835.322 87.9116V73.3602C835.322 72.2557 834.427 71.3602 833.322 71.3602Z" fill="#F5F5F5"/>
  <path d="M833.322 95.1469H819.276C818.171 95.1469 817.276 96.0423 817.276 97.1468V111.698C817.276 112.803 818.171 113.698 819.276 113.698H833.322C834.427 113.698 835.322 112.803 835.322 111.698V97.1469C835.322 96.0423 834.427 95.1469 833.322 95.1469Z" fill="#F5F5F5"/>
  <path d="M833.322 118.934H819.276C818.171 118.934 817.276 119.829 817.276 120.934V135.485C817.276 136.589 818.171 137.485 819.276 137.485H833.322C834.427 137.485 835.322 136.589 835.322 135.485V120.934C835.322 119.829 834.427 118.934 833.322 118.934Z" fill="#F5F5F5"/>
  <path d="M787.043 142.72H772.997C771.892 142.72 770.997 143.616 770.997 144.72V159.272C770.997 160.376 771.892 161.272 772.997 161.272H787.043C788.148 161.272 789.043 160.376 789.043 159.272V144.72C789.043 143.616 788.148 142.72 787.043 142.72Z" fill="#F5F5F5"/>
  <path d="M810.183 142.72H796.136C795.032 142.72 794.136 143.616 794.136 144.72V159.272C794.136 160.376 795.032 161.272 796.136 161.272H810.183C811.287 161.272 812.183 160.376 812.183 159.272V144.72C812.183 143.616 811.287 142.72 810.183 142.72Z" fill="#F5F5F5"/>
  <path d="M833.322 142.72H819.276C818.171 142.72 817.276 143.616 817.276 144.72V159.272C817.276 160.376 818.171 161.272 819.276 161.272H833.322C834.427 161.272 835.322 160.376 835.322 159.272V144.72C835.322 143.616 834.427 142.72 833.322 142.72Z" fill="#F5F5F5"/>
  <path d="M856.461 142.72H842.415C841.31 142.72 840.415 143.616 840.415 144.72V159.272C840.415 160.376 841.31 161.272 842.415 161.272H856.461C857.566 161.272 858.461 160.376 858.461 159.272V144.72C858.461 143.616 857.566 142.72 856.461 142.72Z" fill="#F5F5F5"/>
  <path d="M879.601 142.72H865.554C864.45 142.72 863.554 143.616 863.554 144.72V159.272C863.554 160.376 864.45 161.272 865.554 161.272H879.601C880.705 161.272 881.601 160.376 881.601 159.272V144.72C881.601 143.616 880.705 142.72 879.601 142.72Z" fill="#F5F5F5"/>
</svg>
